<svg width="23" height="19" viewBox="0 0 23 19" fill="none" xmlns="http://www.w3.org/2000/svg">
<path d="M21.6318 16.8115H20.1917V8.49026C20.1917 8.29094 20.1503 8.09379 20.0702 7.91128C19.9901 7.72877 19.873 7.56488 19.7263 7.42997L12.5257 0.636189C12.5222 0.633118 12.5189 0.62981 12.5158 0.626288C12.2507 0.385188 11.9052 0.251587 11.5469 0.251587C11.1885 0.251587 10.843 0.385188 10.5779 0.626288L10.568 0.636189L3.37552 7.42997C3.22881 7.56488 3.1117 7.72877 3.0316 7.91128C2.9515 8.09379 2.91015 8.29094 2.91018 8.49026V16.8115H1.47006C1.27909 16.8115 1.09594 16.8873 0.960901 17.0224C0.825863 17.1574 0.75 17.3406 0.75 17.5315C0.75 17.7225 0.825863 17.9056 0.960901 18.0407C1.09594 18.1757 1.27909 18.2516 1.47006 18.2516H21.6318C21.8227 18.2516 22.0059 18.1757 22.1409 18.0407C22.276 17.9056 22.3518 17.7225 22.3518 17.5315C22.3518 17.3406 22.276 17.1574 22.1409 17.0224C22.0059 16.8873 21.8227 16.8115 21.6318 16.8115ZM4.35031 8.49026L4.36021 8.48126L11.5509 1.69018L18.7425 8.47946L18.7524 8.48846V16.8115H14.4312V12.4911C14.4312 12.1092 14.2794 11.7429 14.0094 11.4728C13.7393 11.2027 13.373 11.051 12.991 11.051H10.1108C9.72885 11.051 9.36255 11.2027 9.09248 11.4728C8.8224 11.7429 8.67067 12.1092 8.67067 12.4911V16.8115H4.35031V8.49026ZM12.991 16.8115H10.1108V12.4911H12.991V16.8115Z" fill="#616161"/>
</svg>
