<svg width="19" height="19" viewBox="0 0 19 19" fill="none" xmlns="http://www.w3.org/2000/svg">
<path d="M18.5306 3.46938L15.5306 0.469385C15.461 0.399653 15.3783 0.344333 15.2872 0.30659C15.1962 0.268847 15.0986 0.24942 15 0.24942C14.9014 0.24942 14.8038 0.268847 14.7128 0.30659C14.6217 0.344333 14.539 0.399653 14.4694 0.469385L5.46937 9.46939C5.39975 9.53909 5.34454 9.62183 5.3069 9.71287C5.26926 9.80392 5.24992 9.90149 5.25 10V13C5.25 13.1989 5.32902 13.3897 5.46967 13.5303C5.61032 13.671 5.80109 13.75 6 13.75H9C9.09852 13.7501 9.19609 13.7308 9.28714 13.6931C9.37818 13.6555 9.46092 13.6003 9.53063 13.5306L18.5306 4.53064C18.6004 4.46098 18.6557 4.37826 18.6934 4.28722C18.7312 4.19617 18.7506 4.09857 18.7506 4.00001C18.7506 3.90145 18.7312 3.80385 18.6934 3.71281C18.6557 3.62176 18.6004 3.53904 18.5306 3.46938ZM8.68969 12.25H6.75V10.3103L12.75 4.31032L14.6897 6.25001L8.68969 12.25ZM15.75 5.1897L13.8103 3.25001L15 2.06032L16.9397 4.00001L15.75 5.1897ZM18 9.25001V17.5C18 17.8978 17.842 18.2794 17.5607 18.5607C17.2794 18.842 16.8978 19 16.5 19H1.5C1.10218 19 0.720644 18.842 0.43934 18.5607C0.158035 18.2794 0 17.8978 0 17.5V2.50001C0 2.10219 0.158035 1.72065 0.43934 1.43935C0.720644 1.15805 1.10218 1.00001 1.5 1.00001H9.75C9.94891 1.00001 10.1397 1.07903 10.2803 1.21968C10.421 1.36033 10.5 1.5511 10.5 1.75001C10.5 1.94892 10.421 2.13969 10.2803 2.28034C10.1397 2.42099 9.94891 2.50001 9.75 2.50001H1.5V17.5H16.5V9.25001C16.5 9.0511 16.579 8.86033 16.7197 8.71968C16.8603 8.57903 17.0511 8.50001 17.25 8.50001C17.4489 8.50001 17.6397 8.57903 17.7803 8.71968C17.921 8.86033 18 9.0511 18 9.25001Z" fill="#616161"/>
</svg>
